<svg width="272" height="312" viewBox="0 0 272 312" fill="none" xmlns="http://www.w3.org/2000/svg">
<g filter="url(#filter0_bd_210_213)">
<path d="M8.39194 225.622C4.55948 223.283 4.55947 217.717 8.39194 215.378L132.874 139.408C134.794 138.236 137.206 138.236 139.126 139.408L263.608 215.378C267.441 217.717 267.441 223.283 263.608 225.622L139.126 301.592C137.206 302.764 134.794 302.764 132.874 301.592L8.39194 225.622Z" fill="url(#paint0_linear_210_213)" fill-opacity="0.16" shape-rendering="crispEdges"/>
<path d="M8.18356 215.037C4.0956 217.532 4.0956 223.468 8.18356 225.963L132.666 301.934C134.713 303.183 137.287 303.183 139.334 301.934L263.816 225.963C267.904 223.468 267.904 217.532 263.816 215.037L139.334 139.066C137.287 137.817 134.713 137.817 132.666 139.066L8.18356 215.037Z" stroke="white" stroke-opacity="0.4" stroke-width="0.8" shape-rendering="crispEdges"/>
</g>
<g filter="url(#filter1_bd_210_213)">
<path d="M8.39194 194.622C4.55948 192.283 4.55947 186.717 8.39194 184.378L132.874 108.408C134.794 107.236 137.206 107.236 139.126 108.408L263.608 184.378C267.441 186.717 267.441 192.283 263.608 194.622L139.126 270.592C137.206 271.764 134.794 271.764 132.874 270.592L8.39194 194.622Z" fill="url(#paint1_linear_210_213)" fill-opacity="0.16" shape-rendering="crispEdges"/>
<path d="M8.18356 184.037C4.0956 186.532 4.0956 192.468 8.18356 194.963L132.666 270.934C134.713 272.183 137.287 272.183 139.334 270.934L263.816 194.963C267.904 192.468 267.904 186.532 263.816 184.037L139.334 108.066C137.287 106.817 134.713 106.817 132.666 108.066L8.18356 184.037Z" stroke="white" stroke-opacity="0.4" stroke-width="0.8" shape-rendering="crispEdges"/>
</g>
<g filter="url(#filter2_bd_210_213)">
<path d="M8.39194 161.622C4.55948 159.283 4.55947 153.717 8.39194 151.378L132.874 75.4076C134.794 74.2363 137.206 74.2363 139.126 75.4076L263.608 151.378C267.441 153.717 267.441 159.283 263.608 161.622L139.126 237.592C137.206 238.764 134.794 238.764 132.874 237.592L8.39194 161.622Z" fill="url(#paint2_linear_210_213)" fill-opacity="0.16" shape-rendering="crispEdges"/>
<path d="M8.18356 151.037C4.0956 153.532 4.0956 159.468 8.18356 161.963L132.666 237.934C134.713 239.183 137.287 239.183 139.334 237.934L263.816 161.963C267.904 159.468 267.904 153.532 263.816 151.037L139.334 75.0661C137.287 73.8168 134.713 73.8168 132.666 75.0661L8.18356 151.037Z" stroke="white" stroke-opacity="0.4" stroke-width="0.8" shape-rendering="crispEdges"/>
</g>
<g filter="url(#filter3_bd_210_213)">
<path d="M8.39194 126.622C4.55948 124.283 4.55947 118.717 8.39194 116.378L132.874 40.4076C134.794 39.2363 137.206 39.2363 139.126 40.4076L263.608 116.378C267.441 118.717 267.441 124.283 263.608 126.622L139.126 202.592C137.206 203.764 134.794 203.764 132.874 202.592L8.39194 126.622Z" fill="url(#paint3_linear_210_213)" fill-opacity="0.16" shape-rendering="crispEdges"/>
<path d="M8.18356 116.037C4.0956 118.532 4.0956 124.468 8.18356 126.963L132.666 202.934C134.713 204.183 137.287 204.183 139.334 202.934L263.816 126.963C267.904 124.468 267.904 118.532 263.816 116.037L139.334 40.0661C137.287 38.8168 134.713 38.8168 132.666 40.0661L8.18356 116.037Z" stroke="white" stroke-opacity="0.4" stroke-width="0.8" shape-rendering="crispEdges"/>
</g>
<g filter="url(#filter4_bd_210_213)">
<path d="M8.39194 88.6216C4.55948 86.2826 4.55947 80.7174 8.39194 78.3785L132.874 2.40757C134.794 1.23631 137.206 1.23631 139.126 2.40757L263.608 78.3784C267.441 80.7174 267.441 86.2826 263.608 88.6215L139.126 164.592C137.206 165.764 134.794 165.764 132.874 164.592L8.39194 88.6216Z" fill="url(#paint4_linear_210_213)" fill-opacity="0.16" shape-rendering="crispEdges"/>
<path d="M8.18356 78.037C4.0956 80.5319 4.0956 86.4681 8.18356 88.963L132.666 164.934C134.713 166.183 137.287 166.183 139.334 164.934L263.816 88.963C267.904 86.4681 267.904 80.5319 263.816 78.037L139.334 2.06614C137.287 0.816782 134.713 0.816782 132.666 2.06614L8.18356 78.037Z" stroke="white" stroke-opacity="0.4" stroke-width="0.8" shape-rendering="crispEdges"/>
</g>
<g filter="url(#filter5_bd_210_213)">
<path d="M80.408 88.6237C76.571 86.2855 76.571 80.7146 80.408 78.3764L132.878 46.4026C134.795 45.2341 137.205 45.2341 139.122 46.4026L191.592 78.3763C195.429 80.7145 195.429 86.2854 191.592 88.6236L139.122 120.597C137.205 121.766 134.795 121.766 132.878 120.597L80.408 88.6237Z" fill="url(#paint5_linear_210_213)" fill-opacity="0.16" shape-rendering="crispEdges"/>
<path d="M80.1999 78.0348C76.107 80.5289 76.1071 86.4712 80.1999 88.9652L132.67 120.939C134.715 122.185 137.285 122.185 139.33 120.939L191.8 88.9652C195.893 86.4711 195.893 80.5288 191.8 78.0348L139.33 46.061C137.285 44.8147 134.715 44.8147 132.67 46.061L80.1999 78.0348Z" stroke="white" stroke-opacity="0.4" stroke-width="0.8" shape-rendering="crispEdges"/>
</g>
<g filter="url(#filter6_b_210_213)">
<path d="M107.286 89.1076C103.484 86.7638 103.484 81.2362 107.286 78.8925L132.352 63.4409C134.282 62.2509 136.718 62.2509 138.648 63.4409L163.714 78.8924C167.516 81.2362 167.516 86.7638 163.714 89.1075L138.648 104.559C136.718 105.749 134.282 105.749 132.352 104.559L107.286 89.1076Z" fill="url(#paint6_linear_210_213)"/>
<path d="M107.076 78.552C103.02 81.0519 103.02 86.9481 107.076 89.4481L132.142 104.9C134.201 106.169 136.799 106.169 138.858 104.9L163.924 89.448C167.98 86.9481 167.98 81.0519 163.924 78.5519L138.858 63.1003C136.799 61.8311 134.201 61.8311 132.142 63.1003L107.076 78.552Z" stroke="white" stroke-opacity="0.4" stroke-width="0.8"/>
</g>
<defs>
<filter id="filter0_bd_210_213" x="-11.2825" y="121.729" width="294.565" height="197.542" filterUnits="userSpaceOnUse" color-interpolation-filters="sRGB">
<feFlood flood-opacity="0" result="BackgroundImageFix"/>
<feGaussianBlur in="BackgroundImageFix" stdDeviation="8"/>
<feComposite in2="SourceAlpha" operator="in" result="effect1_backgroundBlur_210_213"/>
<feColorMatrix in="SourceAlpha" type="matrix" values="0 0 0 0 0 0 0 0 0 0 0 0 0 0 0 0 0 0 127 0" result="hardAlpha"/>
<feOffset dy="4"/>
<feGaussianBlur stdDeviation="2"/>
<feComposite in2="hardAlpha" operator="out"/>
<feColorMatrix type="matrix" values="0 0 0 0 0 0 0 0 0 0 0 0 0 0 0 0 0 0 0.25 0"/>
<feBlend mode="normal" in2="effect1_backgroundBlur_210_213" result="effect2_dropShadow_210_213"/>
<feBlend mode="normal" in="SourceGraphic" in2="effect2_dropShadow_210_213" result="shape"/>
</filter>
<filter id="filter1_bd_210_213" x="-11.2825" y="90.729" width="294.565" height="197.542" filterUnits="userSpaceOnUse" color-interpolation-filters="sRGB">
<feFlood flood-opacity="0" result="BackgroundImageFix"/>
<feGaussianBlur in="BackgroundImageFix" stdDeviation="8"/>
<feComposite in2="SourceAlpha" operator="in" result="effect1_backgroundBlur_210_213"/>
<feColorMatrix in="SourceAlpha" type="matrix" values="0 0 0 0 0 0 0 0 0 0 0 0 0 0 0 0 0 0 127 0" result="hardAlpha"/>
<feOffset dy="4"/>
<feGaussianBlur stdDeviation="2"/>
<feComposite in2="hardAlpha" operator="out"/>
<feColorMatrix type="matrix" values="0 0 0 0 0 0 0 0 0 0 0 0 0 0 0 0 0 0 0.25 0"/>
<feBlend mode="normal" in2="effect1_backgroundBlur_210_213" result="effect2_dropShadow_210_213"/>
<feBlend mode="normal" in="SourceGraphic" in2="effect2_dropShadow_210_213" result="shape"/>
</filter>
<filter id="filter2_bd_210_213" x="-11.2825" y="57.729" width="294.565" height="197.542" filterUnits="userSpaceOnUse" color-interpolation-filters="sRGB">
<feFlood flood-opacity="0" result="BackgroundImageFix"/>
<feGaussianBlur in="BackgroundImageFix" stdDeviation="8"/>
<feComposite in2="SourceAlpha" operator="in" result="effect1_backgroundBlur_210_213"/>
<feColorMatrix in="SourceAlpha" type="matrix" values="0 0 0 0 0 0 0 0 0 0 0 0 0 0 0 0 0 0 127 0" result="hardAlpha"/>
<feOffset dy="4"/>
<feGaussianBlur stdDeviation="2"/>
<feComposite in2="hardAlpha" operator="out"/>
<feColorMatrix type="matrix" values="0 0 0 0 0 0 0 0 0 0 0 0 0 0 0 0 0 0 0.25 0"/>
<feBlend mode="normal" in2="effect1_backgroundBlur_210_213" result="effect2_dropShadow_210_213"/>
<feBlend mode="normal" in="SourceGraphic" in2="effect2_dropShadow_210_213" result="shape"/>
</filter>
<filter id="filter3_bd_210_213" x="-11.2825" y="22.729" width="294.565" height="197.542" filterUnits="userSpaceOnUse" color-interpolation-filters="sRGB">
<feFlood flood-opacity="0" result="BackgroundImageFix"/>
<feGaussianBlur in="BackgroundImageFix" stdDeviation="8"/>
<feComposite in2="SourceAlpha" operator="in" result="effect1_backgroundBlur_210_213"/>
<feColorMatrix in="SourceAlpha" type="matrix" values="0 0 0 0 0 0 0 0 0 0 0 0 0 0 0 0 0 0 127 0" result="hardAlpha"/>
<feOffset dy="4"/>
<feGaussianBlur stdDeviation="2"/>
<feComposite in2="hardAlpha" operator="out"/>
<feColorMatrix type="matrix" values="0 0 0 0 0 0 0 0 0 0 0 0 0 0 0 0 0 0 0.25 0"/>
<feBlend mode="normal" in2="effect1_backgroundBlur_210_213" result="effect2_dropShadow_210_213"/>
<feBlend mode="normal" in="SourceGraphic" in2="effect2_dropShadow_210_213" result="shape"/>
</filter>
<filter id="filter4_bd_210_213" x="-11.2825" y="-15.271" width="294.565" height="197.542" filterUnits="userSpaceOnUse" color-interpolation-filters="sRGB">
<feFlood flood-opacity="0" result="BackgroundImageFix"/>
<feGaussianBlur in="BackgroundImageFix" stdDeviation="8"/>
<feComposite in2="SourceAlpha" operator="in" result="effect1_backgroundBlur_210_213"/>
<feColorMatrix in="SourceAlpha" type="matrix" values="0 0 0 0 0 0 0 0 0 0 0 0 0 0 0 0 0 0 127 0" result="hardAlpha"/>
<feOffset dy="4"/>
<feGaussianBlur stdDeviation="2"/>
<feComposite in2="hardAlpha" operator="out"/>
<feColorMatrix type="matrix" values="0 0 0 0 0 0 0 0 0 0 0 0 0 0 0 0 0 0 0.25 0"/>
<feBlend mode="normal" in2="effect1_backgroundBlur_210_213" result="effect2_dropShadow_210_213"/>
<feBlend mode="normal" in="SourceGraphic" in2="effect2_dropShadow_210_213" result="shape"/>
</filter>
<filter id="filter5_bd_210_213" x="60.7302" y="28.7261" width="150.54" height="109.548" filterUnits="userSpaceOnUse" color-interpolation-filters="sRGB">
<feFlood flood-opacity="0" result="BackgroundImageFix"/>
<feGaussianBlur in="BackgroundImageFix" stdDeviation="8"/>
<feComposite in2="SourceAlpha" operator="in" result="effect1_backgroundBlur_210_213"/>
<feColorMatrix in="SourceAlpha" type="matrix" values="0 0 0 0 0 0 0 0 0 0 0 0 0 0 0 0 0 0 127 0" result="hardAlpha"/>
<feOffset dy="4"/>
<feGaussianBlur stdDeviation="2"/>
<feComposite in2="hardAlpha" operator="out"/>
<feColorMatrix type="matrix" values="0 0 0 0 0 0 0 0 0 0 0 0 0 0 0 0 0 0 0.25 0"/>
<feBlend mode="normal" in2="effect1_backgroundBlur_210_213" result="effect2_dropShadow_210_213"/>
<feBlend mode="normal" in="SourceGraphic" in2="effect2_dropShadow_210_213" result="shape"/>
</filter>
<filter id="filter6_b_210_213" x="87.634" y="45.7485" width="95.7319" height="76.5029" filterUnits="userSpaceOnUse" color-interpolation-filters="sRGB">
<feFlood flood-opacity="0" result="BackgroundImageFix"/>
<feGaussianBlur in="BackgroundImageFix" stdDeviation="8"/>
<feComposite in2="SourceAlpha" operator="in" result="effect1_backgroundBlur_210_213"/>
<feBlend mode="normal" in="SourceGraphic" in2="effect1_backgroundBlur_210_213" result="shape"/>
</filter>
<linearGradient id="paint0_linear_210_213" x1="4.5" y1="153" x2="253" y2="267.5" gradientUnits="userSpaceOnUse">
<stop stop-color="white"/>
<stop offset="1" stop-color="white" stop-opacity="0"/>
</linearGradient>
<linearGradient id="paint1_linear_210_213" x1="4.5" y1="122" x2="253" y2="236.5" gradientUnits="userSpaceOnUse">
<stop stop-color="white"/>
<stop offset="1" stop-color="white" stop-opacity="0"/>
</linearGradient>
<linearGradient id="paint2_linear_210_213" x1="4.5" y1="89" x2="253" y2="203.5" gradientUnits="userSpaceOnUse">
<stop stop-color="white"/>
<stop offset="1" stop-color="white" stop-opacity="0"/>
</linearGradient>
<linearGradient id="paint3_linear_210_213" x1="4.5" y1="54" x2="253" y2="168.5" gradientUnits="userSpaceOnUse">
<stop stop-color="white"/>
<stop offset="1" stop-color="white" stop-opacity="0"/>
</linearGradient>
<linearGradient id="paint4_linear_210_213" x1="4.5" y1="16" x2="253" y2="130.5" gradientUnits="userSpaceOnUse">
<stop stop-color="white"/>
<stop offset="1" stop-color="white" stop-opacity="0"/>
</linearGradient>
<linearGradient id="paint5_linear_210_213" x1="74.1176" y1="51.7831" x2="190.997" y2="105.718" gradientUnits="userSpaceOnUse">
<stop stop-color="white"/>
<stop offset="1" stop-color="white" stop-opacity="0"/>
</linearGradient>
<linearGradient id="paint6_linear_210_213" x1="99" y1="84" x2="191" y2="110.5" gradientUnits="userSpaceOnUse">
<stop stop-color="white"/>
<stop offset="1" stop-color="white" stop-opacity="0"/>
</linearGradient>
</defs>
</svg>
