<svg width="279" height="397" viewBox="0 0 279 397" fill="none" xmlns="http://www.w3.org/2000/svg">
<path d="M7.62847 88.2309C3.37213 76.0299 9.54015 62.6492 21.5818 57.9609L147.162 9.06823C159.87 4.12065 174.142 10.7424 178.57 23.6406L272.124 296.171C276.052 307.616 270.847 320.195 259.98 325.517L139.452 384.544C126.528 390.873 110.976 384.483 106.236 370.895L7.62847 88.2309Z" fill="url(#paint0_linear_231_398)" fill-opacity="0.16"/>
<path d="M21.4367 57.5882C9.19433 62.3545 2.92352 75.9583 7.25079 88.3626L105.858 371.027C110.678 384.842 126.488 391.338 139.628 384.903L260.156 325.876C271.204 320.466 276.496 307.677 272.502 296.041L178.948 23.5108C174.446 10.3976 159.937 3.66545 147.017 8.69549L21.4367 57.5882Z" stroke="white" stroke-opacity="0.4" stroke-width="0.8"/>
<rect width="63.451" height="65.9004" rx="12" transform="matrix(0.932991 -0.359899 0.329724 0.944077 31.7795 105.48)" fill="url(#paint1_linear_231_398)" fill-opacity="0.2"/>
<rect x="-0.505086" y="-0.233671" width="64.251" height="66.7004" rx="12.4" transform="matrix(0.932991 -0.359899 0.329724 0.944077 31.8227 105.285)" stroke="white" stroke-opacity="0.1" stroke-width="0.8"/>
<rect width="25.2528" height="26.2277" rx="6" transform="matrix(0.932991 -0.359899 0.329724 0.944077 106.895 75.8857)" fill="url(#paint2_linear_231_398)" fill-opacity="0.2"/>
<rect x="-0.505086" y="-0.233671" width="26.0528" height="27.0277" rx="6.4" transform="matrix(0.932991 -0.359899 0.329724 0.944077 106.938 75.6909)" stroke="white" stroke-opacity="0.1" stroke-width="0.8"/>
<rect width="25.2528" height="26.2277" rx="6" transform="matrix(0.932991 -0.359899 0.329724 0.944077 144.865 60.2705)" fill="url(#paint3_linear_231_398)" fill-opacity="0.2"/>
<rect x="-0.505086" y="-0.233671" width="26.0528" height="27.0277" rx="6.4" transform="matrix(0.932991 -0.359899 0.329724 0.944077 144.909 60.0757)" stroke="white" stroke-opacity="0.1" stroke-width="0.8"/>
<rect width="25.2528" height="26.2277" rx="6" transform="matrix(0.932991 -0.359899 0.329724 0.944077 120.102 113.188)" fill="url(#paint4_linear_231_398)" fill-opacity="0.2"/>
<rect x="-0.505086" y="-0.233671" width="26.0528" height="27.0277" rx="6.4" transform="matrix(0.932991 -0.359899 0.329724 0.944077 120.145 112.993)" stroke="white" stroke-opacity="0.1" stroke-width="0.8"/>
<rect width="25.2528" height="26.2277" rx="6" transform="matrix(0.932991 -0.359899 0.329724 0.944077 158.073 97.5728)" fill="url(#paint5_linear_231_398)" fill-opacity="0.2"/>
<rect x="-0.505086" y="-0.233671" width="26.0528" height="27.0277" rx="6.4" transform="matrix(0.932991 -0.359899 0.329724 0.944077 158.116 97.3779)" stroke="white" stroke-opacity="0.1" stroke-width="0.8"/>
<rect width="25.2528" height="26.2277" rx="6" transform="matrix(0.932991 -0.359899 0.329724 0.944077 63.1462 184.323)" fill="url(#paint6_linear_231_398)" fill-opacity="0.2"/>
<rect x="-0.505086" y="-0.233671" width="26.0528" height="27.0277" rx="6.4" transform="matrix(0.932991 -0.359899 0.329724 0.944077 63.1894 184.128)" stroke="white" stroke-opacity="0.1" stroke-width="0.8"/>
<rect width="25.2528" height="26.2277" rx="6" transform="matrix(0.932991 -0.359899 0.329724 0.944077 101.117 168.708)" fill="url(#paint7_linear_231_398)" fill-opacity="0.2"/>
<rect x="-0.505086" y="-0.233671" width="26.0528" height="27.0277" rx="6.4" transform="matrix(0.932991 -0.359899 0.329724 0.944077 101.16 168.513)" stroke="white" stroke-opacity="0.1" stroke-width="0.8"/>
<rect width="25.2528" height="26.2277" rx="6" transform="matrix(0.932991 -0.359899 0.329724 0.944077 134.96 153.96)" fill="url(#paint8_linear_231_398)" fill-opacity="0.2"/>
<rect x="-0.505086" y="-0.233671" width="26.0528" height="27.0277" rx="6.4" transform="matrix(0.932991 -0.359899 0.329724 0.944077 135.003 153.766)" stroke="white" stroke-opacity="0.1" stroke-width="0.8"/>
<rect width="25.2528" height="26.2277" rx="6" transform="matrix(0.932991 -0.359899 0.329724 0.944077 172.93 138.345)" fill="url(#paint9_linear_231_398)" fill-opacity="0.2"/>
<rect x="-0.505086" y="-0.233671" width="26.0528" height="27.0277" rx="6.4" transform="matrix(0.932991 -0.359899 0.329724 0.944077 172.974 138.15)" stroke="white" stroke-opacity="0.1" stroke-width="0.8"/>
<rect width="25.2528" height="26.2277" rx="6" transform="matrix(0.932991 -0.359899 0.329724 0.944077 77.1792 222.492)" fill="url(#paint10_linear_231_398)" fill-opacity="0.2"/>
<rect x="-0.505086" y="-0.233671" width="26.0528" height="27.0277" rx="6.4" transform="matrix(0.932991 -0.359899 0.329724 0.944077 77.2224 222.297)" stroke="white" stroke-opacity="0.1" stroke-width="0.8"/>
<rect width="25.2528" height="26.2277" rx="6" transform="matrix(0.932991 -0.359899 0.329724 0.944077 115.149 206.878)" fill="url(#paint11_linear_231_398)" fill-opacity="0.2"/>
<rect x="-0.505086" y="-0.233671" width="26.0528" height="27.0277" rx="6.4" transform="matrix(0.932991 -0.359899 0.329724 0.944077 115.193 206.683)" stroke="white" stroke-opacity="0.1" stroke-width="0.8"/>
<rect width="25.2528" height="26.2277" rx="6" transform="matrix(0.932991 -0.359899 0.329724 0.944077 148.992 192.13)" fill="url(#paint12_linear_231_398)" fill-opacity="0.2"/>
<rect x="-0.505086" y="-0.233671" width="26.0528" height="27.0277" rx="6.4" transform="matrix(0.932991 -0.359899 0.329724 0.944077 149.036 191.935)" stroke="white" stroke-opacity="0.1" stroke-width="0.8"/>
<rect width="25.2528" height="26.2277" rx="6" transform="matrix(0.932991 -0.359899 0.329724 0.944077 186.963 176.515)" fill="url(#paint13_linear_231_398)" fill-opacity="0.2"/>
<rect x="-0.505086" y="-0.233671" width="26.0528" height="27.0277" rx="6.4" transform="matrix(0.932991 -0.359899 0.329724 0.944077 187.006 176.32)" stroke="white" stroke-opacity="0.1" stroke-width="0.8"/>
<path d="M10.2039 95.9663L180.772 29.9284" stroke="white" stroke-opacity="0.4" stroke-width="0.8"/>
<path d="M176.174 355.24L216.266 335.687" stroke="white" stroke-opacity="0.2" stroke-width="1.5"/>
<defs>
<linearGradient id="paint0_linear_231_398" x1="137.849" y1="15.6149" x2="137.849" y2="379.963" gradientUnits="userSpaceOnUse">
<stop stop-color="#D9D9D9"/>
<stop offset="1" stop-color="#D9D9D9" stop-opacity="0"/>
</linearGradient>
<linearGradient id="paint1_linear_231_398" x1="-0.975718" y1="2.7609" x2="66.7065" y2="72.7782" gradientUnits="userSpaceOnUse">
<stop stop-color="white"/>
<stop offset="1" stop-color="white" stop-opacity="0"/>
</linearGradient>
<linearGradient id="paint2_linear_231_398" x1="12.6264" y1="0" x2="12.6264" y2="26.2277" gradientUnits="userSpaceOnUse">
<stop stop-color="white"/>
<stop offset="1" stop-color="white" stop-opacity="0"/>
</linearGradient>
<linearGradient id="paint3_linear_231_398" x1="12.6264" y1="0" x2="12.6264" y2="26.2277" gradientUnits="userSpaceOnUse">
<stop stop-color="white"/>
<stop offset="1" stop-color="white" stop-opacity="0"/>
</linearGradient>
<linearGradient id="paint4_linear_231_398" x1="12.6264" y1="0" x2="12.6264" y2="26.2277" gradientUnits="userSpaceOnUse">
<stop stop-color="white"/>
<stop offset="1" stop-color="white" stop-opacity="0"/>
</linearGradient>
<linearGradient id="paint5_linear_231_398" x1="12.6264" y1="0" x2="12.6264" y2="26.2277" gradientUnits="userSpaceOnUse">
<stop stop-color="white"/>
<stop offset="1" stop-color="white" stop-opacity="0"/>
</linearGradient>
<linearGradient id="paint6_linear_231_398" x1="12.6264" y1="0" x2="12.6264" y2="26.2277" gradientUnits="userSpaceOnUse">
<stop stop-color="white"/>
<stop offset="1" stop-color="white" stop-opacity="0"/>
</linearGradient>
<linearGradient id="paint7_linear_231_398" x1="12.6264" y1="0" x2="12.6264" y2="26.2277" gradientUnits="userSpaceOnUse">
<stop stop-color="white"/>
<stop offset="1" stop-color="white" stop-opacity="0"/>
</linearGradient>
<linearGradient id="paint8_linear_231_398" x1="12.6264" y1="0" x2="12.6264" y2="26.2277" gradientUnits="userSpaceOnUse">
<stop stop-color="white"/>
<stop offset="1" stop-color="white" stop-opacity="0"/>
</linearGradient>
<linearGradient id="paint9_linear_231_398" x1="12.6264" y1="0" x2="12.6264" y2="26.2277" gradientUnits="userSpaceOnUse">
<stop stop-color="white"/>
<stop offset="1" stop-color="white" stop-opacity="0"/>
</linearGradient>
<linearGradient id="paint10_linear_231_398" x1="12.6264" y1="0" x2="12.6264" y2="26.2277" gradientUnits="userSpaceOnUse">
<stop stop-color="white"/>
<stop offset="1" stop-color="white" stop-opacity="0"/>
</linearGradient>
<linearGradient id="paint11_linear_231_398" x1="12.6264" y1="0" x2="12.6264" y2="26.2277" gradientUnits="userSpaceOnUse">
<stop stop-color="white"/>
<stop offset="1" stop-color="white" stop-opacity="0"/>
</linearGradient>
<linearGradient id="paint12_linear_231_398" x1="12.6264" y1="0" x2="12.6264" y2="26.2277" gradientUnits="userSpaceOnUse">
<stop stop-color="white"/>
<stop offset="1" stop-color="white" stop-opacity="0"/>
</linearGradient>
<linearGradient id="paint13_linear_231_398" x1="12.6264" y1="0" x2="12.6264" y2="26.2277" gradientUnits="userSpaceOnUse">
<stop stop-color="white"/>
<stop offset="1" stop-color="white" stop-opacity="0"/>
</linearGradient>
</defs>
</svg>
